<?xml version="1.0" standalone="no"?>
<!DOCTYPE svg PUBLIC "-//W3C//DTD SVG 20010904//EN"
 "http://www.w3.org/TR/2001/REC-SVG-20010904/DTD/svg10.dtd">
<svg version="1.0" xmlns="http://www.w3.org/2000/svg"
 width="700.000000pt" height="700.000000pt" viewBox="0 0 700.000000 700.000000"
 preserveAspectRatio="xMidYMid meet">
<metadata>
Created by potrace 1.14, written by Peter Selinger 2001-2017
</metadata>
<g transform="translate(0.000000,700.000000) scale(0.100000,-0.100000)"
fill="#000000" stroke="none">
<path d="M1514 6941 c-2 -2 -4 -505 -4 -1117 l0 -1113 -87 -26 c-103 -30 -179
-59 -245 -92 -27 -13 -48 -20 -48 -16 0 5 -4 3 -8 -3 -7 -10 -19 -18 -102 -60
-19 -10 -39 -22 -45 -26 -45 -35 -144 -96 -149 -91 -3 4 -6 0 -6 -8 0 -8 -12
-22 -27 -31 -72 -42 -305 -284 -378 -392 -62 -90 -98 -149 -135 -219 -47 -89
-110 -235 -110 -255 0 -7 -3 -11 -7 -9 -5 3 -9 -5 -10 -16 0 -12 -11 -56 -23
-97 -25 -84 -25 -87 -45 -190 -17 -88 -25 -186 -27 -330 -1 -92 3 -144 17
-265 13 -114 77 -352 119 -449 7 -17 20 -47 27 -66 7 -19 24 -53 38 -75 13
-22 24 -41 23 -42 -2 -4 30 -60 71 -124 20 -33 37 -64 37 -69 0 -4 3 -10 8
-12 4 -1 23 -23 42 -48 19 -25 40 -51 48 -58 7 -8 25 -30 40 -50 25 -33 134
-142 192 -192 14 -12 37 -32 52 -46 15 -13 32 -24 37 -24 5 0 11 -4 13 -9 4
-10 145 -106 182 -122 14 -7 26 -15 26 -19 0 -3 16 -12 35 -19 19 -7 35 -17
35 -23 0 -6 3 -8 6 -5 4 4 19 0 33 -8 62 -34 174 -77 299 -116 l72 -22 0 -482
0 -482 2725 0 c1982 0 2725 3 2726 11 1 14 1 5175 0 5201 -1 18 -83 118 -225
275 -23 25 -54 62 -71 81 -36 42 -166 190 -180 205 -5 6 -35 39 -65 74 -30 34
-63 72 -73 84 -11 12 -40 45 -65 75 -26 29 -60 68 -77 86 -16 18 -52 59 -80
91 -27 32 -57 65 -65 74 -8 8 -91 103 -185 210 -93 107 -172 197 -175 200 -6
6 -213 243 -217 249 -4 6 -3963 7 -3969 2z"/>
</g>
</svg>
