<?xml version="1.0" encoding="UTF-8" standalone="no"?>
<svg
   version="1.1"
   viewBox="0 0 200 16"
   id="svg4746"
   sodipodi:docname="animashooter-storyboard-logo.svg"
   inkscape:version="1.2.2 (b0a8486, 2022-12-01)"
   xmlns:inkscape="http://www.inkscape.org/namespaces/inkscape"
   xmlns:sodipodi="http://sodipodi.sourceforge.net/DTD/sodipodi-0.dtd"
   xmlns="http://www.w3.org/2000/svg"
   xmlns:svg="http://www.w3.org/2000/svg">
  <defs
     id="defs4750" />
  <sodipodi:namedview
     id="namedview4748"
     pagecolor="#ffffff"
     bordercolor="#666666"
     borderopacity="1.0"
     inkscape:showpageshadow="2"
     inkscape:pageopacity="0.0"
     inkscape:pagecheckerboard="0"
     inkscape:deskcolor="#d1d1d1"
     showgrid="false"
     inkscape:zoom="7.185"
     inkscape:cx="90.883786"
     inkscape:cy="7.9331942"
     inkscape:window-width="2560"
     inkscape:window-height="1322"
     inkscape:window-x="0"
     inkscape:window-y="0"
     inkscape:window-maximized="1"
     inkscape:current-layer="svg4746" />
  <path
     d="m78.147 0.22889v12.142h1.2952v-4.4707c0-1.1132 0.20495-1.9152 0.61587-2.4042 0.41615-0.48896 1.0747-0.73252 1.9745-0.73252 0.67625 0 1.1723 0.17224 1.4896 0.51561 0.31732 0.34329 0.47673 0.86211 0.47673 1.5592v5.5327h1.2952v-5.5778c0-1.082-0.26442-1.8712-0.78981-2.3653-0.5202-0.49938-1.3013-0.74887-2.3469-0.74887-0.60343 0-1.143 0.11879-1.6165 0.35794-0.46818 0.23401-0.82956 0.55683-1.0845 0.96783h-0.07773c0.04158-0.29142 0.06339-0.65867 0.06339-1.1008v-3.6749h-1.2952zm83.443 0v12.142h0.48492l0.21687-1.2788h0.0717c0.28092 0.45776 0.66203 0.8102 1.1459 1.0599 0.48377 0.24985 1.0273 0.37457 1.6307 0.37457 1.1444 0 2.0326-0.3813 2.662-1.1459 0.63464-0.76471 0.95144-1.8518 0.95144-3.2616 0-1.4357-0.30097-2.5258-0.90436-3.2697-0.59821-0.74907-1.4903-1.1234-2.6763-1.1234-0.63982 0-1.1894 0.11879-1.6472 0.35794-0.45257 0.23916-0.8397 0.61353-1.1622 1.1234h-0.0552l0.0226-0.66295c0.021-0.38487 0.0329-0.80672 0.0329-1.2645v-3.0508h-0.77341zm36.8 0v3.0508c0 0.62945 0.0158 1.272 0.047 1.9274h-0.047c-0.35375-0.54111-0.75576-0.92226-1.2031-1.1459-0.44735-0.22371-0.97809-0.33537-1.5919-0.33537-1.1704 0-2.0625 0.38724-2.6763 1.1622-0.61381 0.77508-0.92075 1.8949-0.92075 3.3618 0 1.3942 0.30991 2.4555 0.92894 3.1838 0.61904 0.72828 1.5141 1.0927 2.6845 1.0927 1.2069 0 2.1336-0.48314 2.7786-1.4507h0.0614l0.19438 1.2952h0.50745v-12.142h-0.7632zm-154.53 0.20273c-0.33292 0-0.59136 0.08909-0.77342 0.26608-0.17687 0.17699-0.26394 0.42933-0.26394 0.75707 0 0.31241 0.08707 0.55881 0.26394 0.74071 0.18206 0.17699 0.4405 0.26608 0.77342 0.26608 0.3225 0 0.57204-0.08909 0.74887-0.26608 0.18206-0.18214 0.27214-0.42858 0.27214-0.74071 0-0.32785-0.09008-0.58019-0.27214-0.75707-0.17687-0.17699-0.42636-0.26608-0.74887-0.26608zm29.385 0.36824c-1.0872 0-1.9604 0.25935-2.6211 0.77956-0.66065 0.52021-0.99032 1.2203-0.99032 2.0994 0 0.83748 0.22676 1.5157 0.6793 2.0359 0.45776 0.52017 1.2162 0.97068 2.2773 1.3505 0.75948 0.27044 1.3248 0.51308 1.6942 0.72638 0.37453 0.21302 0.63986 0.44683 0.79595 0.70183 0.16127 0.24985 0.24145 0.57247 0.24145 0.96779 0 0.59821-0.22379 1.0656-0.67114 1.4036-0.44735 0.333-1.1127 0.49922-1.997 0.49922-0.54099 0-1.0875-0.05741-1.6389-0.17184-0.55141-0.11443-1.0623-0.27083-1.5305-0.46857v1.2809c0.72828 0.34844 1.7698 0.52175 3.1224 0.52175 1.2484 0 2.2366-0.27915 2.9649-0.84093 0.72828-0.56182 1.0927-1.3449 1.0927-2.349 0-0.78027-0.22676-1.4159-0.6793-1.905-0.44735-0.48892-1.2692-0.94637-2.4656-1.3729-0.71264-0.25499-1.2433-0.48564-1.5919-0.69363-0.34333-0.21342-0.5889-0.44596-0.73458-0.69569-0.14563-0.25499-0.2169-0.57861-0.2169-0.97397 0-0.53577 0.19802-0.95461 0.59338-1.2563 0.39532-0.30172 0.94281-0.45424 1.6451-0.45424 0.88951 0 1.8064 0.19798 2.7479 0.59338l0.41334-1.154c-0.95195-0.41615-1.9966-0.62406-3.1306-0.62406zm57.837 0c-1.0508 0-1.9112 0.26925-2.5822 0.81024-0.66584 0.53581-0.99852 1.2319-0.99852 2.085 0 0.77512 0.22078 1.3959 0.66294 1.864 0.44735 0.46295 1.2533 0.89462 2.4185 1.2952 0.79591 0.27044 1.3998 0.52294 1.8108 0.75707 0.41092 0.23401 0.70797 0.49344 0.89007 0.77956 0.1821 0.28073 0.27214 0.63836 0.27214 1.0701 0 0.69708-0.27523 1.2604-0.82664 1.6921-0.54621 0.42656-1.2878 0.64046-2.2241 0.64046-1.2744 0-2.323-0.17541-3.145-0.52381v0.79595c0.74388 0.30686 1.8122 0.46038 3.2063 0.46038 1.16 0 2.0898-0.27836 2.7869-0.83483 0.70226-0.55659 1.0538-1.3111 1.0537-2.2631 0-0.52017-0.10501-0.96177-0.31304-1.3259-0.20289-0.36943-0.52864-0.69601-0.97603-0.98213-0.44735-0.29142-1.1157-0.59136-2.0052-0.89826-0.8479-0.30172-1.446-0.5581-1.7945-0.7714-0.34852-0.21857-0.60102-0.46406-0.75706-0.73454-0.15086-0.27044-0.2251-0.61607-0.2251-1.0374 0-0.67106 0.24949-1.2017 0.74891-1.5919 0.49937-0.39002 1.1707-0.58518 2.0134-0.58518 0.86353 0 1.7685 0.19798 2.7152 0.59338l0.2885-0.6875c-0.94154-0.40577-1.9485-0.60771-3.02-0.60771zm-104.59 0.11641-4.2684 11.455h1.9664l1.1152-3.1674h4.3622l1.1397 3.1674h1.9806l-4.2684-11.455h-2.0276zm79.389 0.92071-0.54634 1.8252-1.2256 0.54016v0.62406h1.2256v5.0868c0 1.7426 0.82568 2.615 2.4799 2.615 0.21849 0 0.46406-0.02376 0.73457-0.07167 0.27571-0.04157 0.48362-0.09622 0.62407-0.16353v-0.99032c-0.12485 0.03564-0.29416 0.07206-0.50742 0.10849-0.21326 0.03168-0.43404 0.04712-0.66294 0.04712-0.42657 0-0.76222-0.13779-1.0067-0.41334-0.2445-0.27558-0.36626-0.67174-0.36626-1.1868v-5.0314h2.4799v-1.0067h-2.4799v-1.9827h-0.74886zm30.501 0-0.39081 1.9193-1.2563 0.352v0.45218h1.2563v5.4776c0 0.85831 0.17624 1.488 0.52995 1.8885 0.35893 0.40055 0.91239 0.59952 1.6614 0.59952 0.48901 0 0.92067-0.06137 1.2952-0.1861v-0.62406c-0.36412 0.08315-0.78985 0.12472-1.2788 0.12472-0.48896 0-0.84738-0.1564-1.0763-0.46857-0.2289-0.31201-0.34373-0.79223-0.34373-1.4425v-5.3691h2.4902v-0.6711h-2.4902v-2.0523h-0.39694zm-108.88 0.68548c0.05203 0.20827 0.14508 0.53684 0.28034 0.98418 0.14044 0.44743 0.24937 0.77619 0.32738 0.98418l1.0701 3.104h-3.3249l1.0313-2.973c0.27048-0.75948 0.47542-1.4594 0.61587-2.0993zm10.439 1.062c-0.58261 0-1.1133 0.11206-1.5919 0.33537-0.47859 0.22371-0.84687 0.54052-1.1069 0.95144h-0.09412l-0.2578-1.1315h-1.4343v8.6306h1.8333v-4.2989c0-1.0768 0.17921-1.8441 0.53814-2.302 0.35893-0.45776 0.92523-0.6875 1.7003-0.6875 0.58261 0 1.0074 0.16551 1.2726 0.49312 0.27048 0.32785 0.40514 0.82374 0.40514 1.4896v5.3054h1.8415v-5.6249c0-2.1068-1.0357-3.1613-3.106-3.1613zm13.125 0c-0.54618 0-1.0481 0.11206-1.5059 0.33537-0.45258 0.22371-0.80014 0.54052-1.0394 0.95144h-0.09206l-0.25784-1.1315h-1.4364v8.6306h1.8333v-4.2989c0-1.0716 0.16539-1.836 0.49312-2.2937 0.33292-0.46295 0.8517-0.69565 1.5592-0.69565 0.53058 0 0.92071 0.16551 1.1704 0.49308 0.24969 0.3227 0.37445 0.81262 0.37445 1.4732v5.322h1.8415v-4.5729c0-0.92075 0.16539-1.6019 0.49312-2.0441 0.33292-0.44739 0.85467-0.67114 1.5673-0.67114 0.53058 0 0.92071 0.16551 1.1704 0.49312 0.25488 0.32231 0.38261 0.81258 0.38261 1.4731v5.322h1.8333v-5.6249c0-1.0664-0.23662-1.8615-0.71003-2.3817-0.46818-0.52017-1.2167-0.77956-2.2466-0.77956-0.59821 0-1.1289 0.12077-1.5919 0.35992-0.46299 0.23916-0.82137 0.57192-1.0762 0.99848h-0.1248c-0.43179-0.90511-1.311-1.3586-2.6375-1.3586zm13.686 0c-0.49419 0-1.021 0.064145-1.5776 0.19441-0.55659 0.12473-1.0684 0.31003-1.5367 0.55449l0.59338 1.3116c0.37453-0.1766 0.76463-0.33023 1.1704-0.46038 0.40573-0.13027 0.8285-0.19441 1.2707-0.19441 0.54099 0 0.94004 0.1374 1.1949 0.4133 0.2601 0.27044 0.39081 0.68037 0.39081 1.2318v0.46038l-1.4916 0.047119c-1.3525 0.041575-2.3595 0.28825-3.0201 0.74067-0.66065 0.45258-0.99032 1.1239-0.99032 2.0134 0 0.83748 0.23662 1.486 0.70999 1.9439 0.47855 0.45776 1.1409 0.68544 1.9888 0.68544 0.66065 0 1.2033-0.09305 1.6246-0.28034 0.42134-0.19243 0.84018-0.55085 1.2563-1.0763h0.06137l0.36626 1.2011h1.3116v-5.813c0-1.0248-0.28121-1.7762-0.84299-2.2548-0.55659-0.47859-1.3823-0.71818-2.4799-0.71818zm25.998 0.077607c-1.2381 0-2.2064 0.39002-2.9035 1.1704-0.69704 0.77508-1.0456 1.8612-1.0456 3.2554 0 0.89993 0.16242 1.684 0.48492 2.3551s0.77991 1.1859 1.3729 1.5448c0.59302 0.35874 1.2712 0.53814 2.0359 0.53814 1.2381 0 2.2094-0.39002 2.9117-1.1704 0.70226-0.78554 1.0538-1.8736 1.0538-3.2676 0-1.3577-0.3545-2.435-1.062-3.2309-0.70226-0.79587-1.6518-1.1949-2.8483-1.1949zm8.9806 0c-1.2381 0-2.2044 0.39002-2.9014 1.1704-0.69704 0.77508-1.0456 1.8612-1.0456 3.2554 0 0.89993 0.16036 1.684 0.48291 2.3551 0.3225 0.67102 0.77995 1.1859 1.373 1.5448 0.59302 0.35874 1.2733 0.53814 2.0379 0.53814 1.2381 0 2.2073-0.39002 2.9096-1.1704 0.70226-0.78554 1.0538-1.8736 1.0538-3.2676 0-1.3577-0.35446-2.435-1.062-3.2309-0.70227-0.79587-1.6518-1.1949-2.8483-1.1949zm13.772 0c-1.1444 0-2.0563 0.40593-2.7378 1.2174-0.67625 0.81151-1.0149 1.9076-1.0149 3.2861 0 1.3681 0.36436 2.4365 1.0927 3.2062 0.73347 0.76989 1.7315 1.154 2.9956 1.154 0.57742 0 1.0695-0.04237 1.4752-0.13106 0.41092-0.08315 0.8456-0.22371 1.3033-0.42153v-1.156c-0.89993 0.38487-1.8108 0.57702-2.7316 0.57702-0.87391 0-1.5521-0.25935-2.0359-0.7796-0.47847-0.5202-0.73093-1.2815-0.75706-2.2855h5.8906v-0.8205c0-1.1548-0.31289-2.0826-0.93715-2.7847-0.62422-0.70749-1.4717-1.062-2.5433-1.062zm8.9193 0c-0.53581 0-1.0279 0.15046-1.4752 0.45218s-0.82854 0.73248-1.1459 1.2891h-0.0635l-0.14733-1.5858h-1.0702v8.553h1.2952v-4.5875c0-0.83752 0.24557-1.5375 0.73457-2.0993 0.4942-0.56186 1.0863-0.84303 1.7781-0.84303 0.27047 0 0.5834 0.039595 0.93714 0.11681l0.18004-1.2011c-0.30171-0.062165-0.6433-0.094237-1.0231-0.094237zm21.521 0.063353c-1.1704 0-2.0912 0.38724-2.7622 1.1622-0.67107 0.76989-1.0067 1.8472-1.0067 3.2309 0 0.87914 0.15046 1.6533 0.45218 2.3245 0.30172 0.67102 0.7364 1.1859 1.3033 1.5448 0.567 0.35874 1.2225 0.53814 1.9664 0.53814 1.1809 0 2.1076-0.38724 2.7786-1.1622 0.67106-0.78027 1.0046-1.8614 1.0046-3.2452 0-1.3628-0.33268-2.4342-0.99852-3.2145-0.66065-0.78549-1.5724-1.1786-2.7378-1.1786zm8.7617 0c-0.56182 0-1.039 0.1275-1.4343 0.38249-0.39536 0.24985-0.76867 0.68528-1.1172 1.3095h-0.0532l-0.0777-1.5285h-0.65681v8.4813h0.77342v-4.6818c0-0.93635 0.23068-1.7106 0.69363-2.3245 0.46295-0.61385 1.057-0.92075 1.7801-0.92075 0.37972 0 0.74503 0.042367 1.0987 0.13106l0.0162-0.077607 3.0119 7.8736c-0.0624 0.17184-0.203 0.53992-0.42149 1.1069-0.21326 0.57231-0.40237 0.99016-0.56883 1.2502-0.16127 0.26529-0.34345 0.46034-0.54634 0.58518-0.20288 0.12473-0.43856 0.1861-0.70385 0.1861-0.34852 0-0.67225-0.04157-0.97396-0.12473v0.6711c0.36411 0.10928 0.69383 0.16353 0.99032 0.16353 0.39536 0 0.73101-0.07008 1.0067-0.21065 0.28093-0.14056 0.5265-0.35121 0.73458-0.63226 0.20807-0.28073 0.46449-0.82153 0.7714-1.6225l3.7997-9.8541h-0.79594l-1.7945 4.7123c-0.49419 1.3317-0.8496 2.3327-1.068 3.0037h-0.047c-0.14555-0.50975-0.49106-1.4949-1.0373-2.9567l-1.7945-4.7594h-0.4399l0.0103-0.055038c-0.41076-0.072856-0.79693-0.10849-1.1559-0.10849zm21.014 0c-1.1704 0-2.0913 0.38724-2.7623 1.1622-0.67103 0.76989-1.0067 1.8472-1.0067 3.2309 0 0.87914 0.15047 1.6533 0.45218 2.3245 0.30172 0.67102 0.7364 1.1859 1.3034 1.5448 0.567 0.35874 1.2225 0.53814 1.9664 0.53814 1.1808 0 2.1076-0.38724 2.7786-1.1622 0.67106-0.78027 1.0067-1.8614 1.0067-3.2452 0-1.3628-0.33268-2.4342-0.99851-3.2145-0.66065-0.78549-1.5746-1.1786-2.7397-1.1786zm16.558 0c-0.56182 0-1.039 0.1275-1.4343 0.38249-0.39536 0.24985-0.76866 0.68528-1.1172 1.3095h-0.0532l-0.0777-1.5285h-0.65681v8.4813h0.77341v-4.6818c0-0.93635 0.23065-1.7106 0.69364-2.3245 0.46295-0.61385 1.057-0.92075 1.7801-0.92075 0.37972 0 0.74503 0.042367 1.0987 0.13106l0.14936-0.74071c-0.41096-0.072856-0.79714-0.10849-1.156-0.10849zm-147.34 0.015838v8.6306h1.8333v-8.6306zm139.15 0c-0.91034 0-1.8311 0.21778-2.7623 0.65479l0.28849 0.6711c0.84271-0.43694 1.6576-0.65475 2.443-0.65475 0.72828 0 1.256 0.2051 1.5837 0.61587 0.32773 0.41096 0.49107 1.0209 0.49107 1.8272v0.56063l-1.6144 0.047119c-1.3057 0.027717-2.3037 0.26846-2.9956 0.72638-0.68667 0.45776-1.0313 1.1004-1.0313 1.9274 0 0.75433 0.2327 1.3454 0.69569 1.7719 0.46295 0.4266 1.1094 0.6384 1.9418 0.6384 0.61381 0 1.1445-0.11206 1.5919-0.33537 0.45258-0.22886 0.8932-0.61599 1.3198-1.1622h0.0614l0.19437 1.3422h0.57085v-5.6412c0-1.0248-0.2327-1.7793-0.69569-2.2631-0.45772-0.48378-1.1518-0.72638-2.083-0.72638zm-38.175 0.68726c0.93635 0 1.6621 0.3227 2.1771 0.96779 0.52016 0.64501 0.77955 1.553 0.77955 2.7234 0 1.1653-0.25844 2.0741-0.77341 2.7296-0.5098 0.6502-1.2325 0.97599-2.1689 0.97599-0.93636 0-1.6621-0.32587-2.177-0.97599-0.50979-0.65542-0.7632-1.5643-0.7632-2.7296 0-1.1756 0.25044-2.0836 0.755-2.7234 0.50979-0.64505 1.2346-0.96779 2.171-0.96779zm21.238 0c1.8519 0 2.7766 1.2248 2.7766 3.6748 0 1.1964-0.23365 2.1202-0.70182 2.7704-0.46818 0.64505-1.1651 0.96783-2.0912 0.96783-0.95195 0-1.6529-0.27836-2.1055-0.83483-0.44735-0.55663-0.67114-1.4744-0.67114-2.7541v-0.13304c0-1.3161 0.2148-2.2617 0.64659-2.8339 0.43175-0.57223 1.1477-0.85736 2.1464-0.85736zm8.5364 0c0.93631 0 1.6621 0.3227 2.177 0.96779 0.52021 0.64501 0.77956 1.553 0.77956 2.7234 0 1.1653-0.25642 2.0741-0.7714 2.7296-0.50979 0.6502-1.2325 0.97599-2.1689 0.97599s-1.6621-0.32587-2.1771-0.97599c-0.50979-0.65542-0.76526-1.5643-0.76526-2.7296 0-1.1756 0.25246-2.0836 0.75707-2.7234 0.50979-0.64505 1.2325-0.96779 2.1689-0.96779zm21.901 0c0.98316 0 1.695 0.28826 2.1321 0.86548 0.44216 0.57219 0.66295 1.5149 0.66295 2.8258v0.13304c0 1.2796-0.22376 2.1975-0.67115 2.7541-0.44735 0.55663-1.1504 0.83483-2.1075 0.83483-1.8675 0-2.8011-1.202-2.8011-3.6053 0-1.2381 0.23065-2.1816 0.69364-2.8318 0.46817-0.65024 1.1651-0.97603 2.0912-0.97603zm-82.101 0.31914c0.67625 0 1.195 0.21975 1.5592 0.65681 0.36412 0.43175 0.5463 1.0555 0.5463 1.8722h-4.4707c0.0728-0.79064 0.31245-1.4105 0.71818-1.8579 0.41092-0.44735 0.96051-0.6711 1.6472-0.6711zm-22.777 0.015838c0.85831 0 1.5069 0.2843 1.9439 0.85118 0.44216 0.56182 0.66295 1.3865 0.66295 2.4737 0 1.0976-0.22078 1.9323-0.66295 2.5045-0.43698 0.56701-1.0796 0.84912-1.9274 0.84912-0.84782 0-1.4905-0.28509-1.9274-0.85732-0.43694-0.57223-0.65681-1.4039-0.65681-2.4963 0-1.1028 0.21686-1.9335 0.64861-2.4902 0.43175-0.55659 1.0714-0.83479 1.9192-0.83479zm8.9806 0c0.85831 0 1.5069 0.2843 1.9439 0.85118 0.44216 0.56182 0.66295 1.3865 0.66295 2.4737 0 1.0976-0.22079 1.9323-0.66295 2.5045-0.43693 0.56701-1.0796 0.84912-1.9274 0.84912-0.84782 0-1.4905-0.28509-1.9274-0.85732-0.43694-0.57223-0.65475-1.4039-0.65475-2.4963 0-1.1028 0.21481-1.9335 0.64659-2.4902 0.43175-0.55659 1.0714-0.83479 1.9192-0.83479zm84.406 3.2922v0.83479c0 0.92075-0.26236 1.6426-0.78775 2.1628-0.52021 0.51494-1.233 0.77136-2.1382 0.77136-0.59302 0-1.0534-0.14452-1.3812-0.43579-0.3225-0.29657-0.48286-0.71141-0.48286-1.2421 0-0.66584 0.25246-1.1549 0.75706-1.4671 0.50979-0.31716 1.3603-0.50334 2.5516-0.56063l1.4814-0.063353zm-117.86 0.19639v0.74887c0 0.67102-0.204 1.1928-0.60977 1.5673-0.40055 0.36943-0.9322 0.5545-1.598 0.5545-0.45776 0-0.80236-0.10295-1.0312-0.31082-0.2289-0.21342-0.34171-0.51332-0.34171-0.89826 0-0.53046 0.19505-0.92356 0.58518-1.1786 0.39536-0.26014 1.023-0.40467 1.8866-0.43583l1.109-0.047119z"
     color="#000000"
     style="text-decoration-line:none;text-indent:0;text-transform:none"
     id="path4742" />
  <path
     d="m9.7106 0.030911c-2.9294 0.0079191-5.6503 1.7361-7.3679 4.0328-1.2844 1.8436-2.1871 4.1266-1.8906 6.4042 0.18028 1.573 1.1956 3.0937 2.7623 3.5521 1.3588 0.40835 2.8178 0.32825 4.213 0.18412 2.1146-0.38566 3.9001-1.7038 5.3525-3.2309 0.30176-0.42961 0.3058-0.09503 0.30077 0.25975 0.0765 0.91196-0.0029 2.0059 0.74887 2.662 1.1966 0.89581 2.946 0.255 3.7751-0.85118 0.56594-0.70183 1.0652-1.4908 1.3095-2.3633-0.83554-0.22253-1.0262 1.139-1.7393 1.4302-0.72622 0.55509-2.1578 0.78827-2.6129-0.215-0.32575-0.89403-0.19901-1.8639-0.21686-2.797 1.8008-2.8648 3.6154-5.72 5.404-8.5918-0.42229-0.27162-1.1028-0.093445-1.6348-0.14334h-1.0579c-0.88583 1.4948-1.8265 2.9571-2.7418 4.4339-0.2719-1.492-0.57097-3.1758-1.9192-4.0922-0.78423-0.53074-1.7568-0.67186-2.6845-0.67518zm-0.022965 1.033c1.6456-0.073252 2.9777 1.3313 3.2779 2.8687 0.19738 0.81745 0.21698 1.6621 0.28849 2.4963-1.2886 2.0374-2.5737 4.1377-4.4113 5.731-1.1152 0.89502-2.7373 1.6551-4.1211 0.90848-1.342-0.64893-1.6423-2.37-1.3054-3.6933 0.5503-2.1737 1.1598-4.4299 2.5576-6.2303 0.92934-1.0781 2.2004-2.1485 3.7137-2.0809zm-1.9537 3.3324c-1.344-0.058997-2.5799 1.2779-2.2466 2.6211 0.28893 1.4811 2.1918 2.2008 3.4416 1.416 1.1376-0.59409 1.47-2.2583 0.59746-3.2165-0.43709-0.52294-1.113-0.82462-1.7924-0.8205z"
     color="#000000"
     fill="#e50101"
     stroke-width="1.0476"
     style="text-decoration-line:none;text-indent:0;text-transform:none;fill:#ffb200;fill-opacity:1"
     id="path4744" />
</svg>
